{"accessors" : [{"bufferView" : 0, "byteOffset" : 0, "componentType" : 5123, "count" : 265380, "type" : "SCALAR", "max" : [44235], "min" : [0]}, {"bufferView" : 1, "byteOffset" : 0, "componentType" : 5126, "count" : 44236, "type" : "VEC3", "max" : [0.2329999953508377, 0.8830999732017517, 0.2240999937057495], "min" : [-0.22020000219345093, -0.9336000084877014, -0.36329999566078186], "name" : "POSITION"}], "asset" : {"generator" : "Aspose.3D 25.2.0", "version" : "2.0"}, "buffers" : [{"uri" : "data:application/octet-stream;base64,", "byteLength" : 1061600}], "bufferViews" : [{"buffer" : 0, "byteOffset" : 0, "byteLength" : 530760, "target" : 34963}, {"buffer" : 0, "byteOffset" : 530764, "byteLength" : 530832, "byteStride" : 12, "target" : 34962}], "meshes" : [{"primitives" : [{"attributes" : {"POSITION" : 1}, "indices" : 0, "mode" : 4}], "name" : ""}], "nodes" : [{"mesh" : 0, "name" : ""}], "scene" : 0, "scenes" : [{"nodes" : [0]}]}